<?xml version="1.0" encoding="utf-8"?>
<!-- Svg Vector Icons : http://www.onlinewebfonts.com/icon -->
<!DOCTYPE svg PUBLIC "-//W3C//DTD SVG 1.1//EN" "http://www.w3.org/Graphics/SVG/1.1/DTD/svg11.dtd">
<svg version="1.1" xmlns="http://www.w3.org/2000/svg" xmlns:xlink="http://www.w3.org/1999/xlink" x="0px" y="0px" viewBox="0 0 1000 1000" enable-background="new 0 0 1000 1000" xml:space="preserve">
<metadata> Svg Vector Icons : http://www.onlinewebfonts.com/icon </metadata>
<g><g><path d="M201.4,708.7c-49,0-88.9-39.9-88.9-88.7c0-49.3,39.9-89,88.9-89c49.1,0,89,39.7,89,89C290.4,668.7,250.5,708.7,201.4,708.7z M201.4,571.9c-26.2,0-47.8,21.6-47.8,47.8c0,26.2,21.5,47.8,47.8,47.8c26.4,0,47.9-21.6,47.9-47.8C249.3,593.5,227.8,571.9,201.4,571.9z M800.3,708.7c-49.1,0-88.9-39.9-88.9-88.7c0-49.3,39.8-89,88.9-89c49,0,88.8,39.7,88.8,89C889.1,668.7,849.3,708.7,800.3,708.7z M800.3,571.9c-26.4,0-48,21.6-48,47.8c0,26.2,21.6,47.8,48,47.8c26.4,0,47.9-21.6,47.9-47.8C848.1,593.5,826.6,571.9,800.3,571.9z M972.8,553.3c0-86.4-53.8-96.6-53.8-96.6c-79.2-11.2-215.6-17-215.6-17c-12.5-21.8-70.3-148.3-104-148.3c-11.2,0-252.7,0-295.4,0c-42.8,0-113,123.5-128.3,151.4c0,0-53.7,9.3-79.1,15c-14.1,3.3-53,4-53,112.8H10v49.3h82c0-60.5,49.1-109.5,109.4-109.5c60.5,0,109.5,49,109.5,109.5h379.8c0-60.5,48.9-109.5,109.6-109.5c60.4,0,109.4,49,109.4,109.5H990v-66.5L972.8,553.3L972.8,553.3z M448.5,431.3H278c23.1-71.8,65.8-123.1,83.8-123.1c22.7,0,86.7,0,86.7,0V431.3z M480.3,431.3V308.1c0,0,88,0,110.6,0c22.8,0,72.6,104.3,86.6,130.9L480.3,431.3z"/></g><g></g><g></g><g></g><g></g><g></g><g></g><g></g><g></g><g></g><g></g><g></g><g></g><g></g><g></g><g></g></g>
</svg>