<svg xmlns="http://www.w3.org/2000/svg" viewBox="0 0 69.05 57.59"><defs><style>.cls-1{fill:none;}.cls-2{fill:#fff;}</style></defs><title>logo_pl</title><g id="Capa_2" data-name="Capa 2"><g id="Capa_1-2" data-name="Capa 1"><path class="cls-1" d="M36.3,9.73H30.14V28.63h6.08A9.14,9.14,0,0,0,43,25.91a9.39,9.39,0,0,0,2.79-6.73,8.73,8.73,0,0,0-2.68-6.69A9.58,9.58,0,0,0,36.3,9.73Z"/><path class="cls-1" d="M8.1,24.07a5.21,5.21,0,0,0-3.83,1.55,5.43,5.43,0,0,0,0,7.62A5.22,5.22,0,0,0,8.1,34.79a5.18,5.18,0,0,0,3.81-1.55,5.43,5.43,0,0,0,0-7.61A5.17,5.17,0,0,0,8.1,24.07Z"/><path class="cls-1" d="M8.1,44.15a5.21,5.21,0,0,0-3.83,1.55,5.43,5.43,0,0,0,0,7.62A5.22,5.22,0,0,0,8.1,54.88a5.18,5.18,0,0,0,3.81-1.55,5.43,5.43,0,0,0,0-7.61A5.17,5.17,0,0,0,8.1,44.15Z"/><path class="cls-2" d="M55.4,19.25A18.21,18.21,0,0,0,49.93,5.69,18.79,18.79,0,0,0,36.3.07L20.48,0V56.61h9.66V38.29h6a18.59,18.59,0,0,0,13.6-5.51A18.55,18.55,0,0,0,55.4,19.25ZM43,25.91a9.14,9.14,0,0,1-6.73,2.72H30.14V9.73H36.3a9.58,9.58,0,0,1,6.76,2.75,8.73,8.73,0,0,1,2.68,6.69A9.39,9.39,0,0,1,43,25.91Z"/><polygon class="cls-2" points="12.68 17.2 12.68 14.56 7.51 14.56 14.87 1.27 4.78 1.27 4.78 3.84 10.41 3.84 2.91 17.2 12.68 17.2"/><path class="cls-2" d="M8.1,21.35A7.82,7.82,0,0,0,2.35,23.7,7.8,7.8,0,0,0,0,29.44a7.77,7.77,0,0,0,2.35,5.73A7.84,7.84,0,0,0,8.1,37.51a7.8,7.8,0,0,0,5.73-2.35,7.78,7.78,0,0,0,2.35-5.72,7.82,7.82,0,0,0-2.34-5.74A7.79,7.79,0,0,0,8.1,21.35ZM11.9,33.24A5.18,5.18,0,0,1,8.1,34.79a5.22,5.22,0,0,1-3.82-1.55,5.43,5.43,0,0,1,0-7.62A5.21,5.21,0,0,1,8.1,24.07a5.33,5.33,0,0,1,5.36,5.37A5.16,5.16,0,0,1,11.9,33.24Z"/><path class="cls-2" d="M8.1,41.44a7.82,7.82,0,0,0-5.75,2.35,8.17,8.17,0,0,0,0,11.47A7.84,7.84,0,0,0,8.1,57.59a7.8,7.8,0,0,0,5.73-2.35,8.17,8.17,0,0,0,0-11.46A7.79,7.79,0,0,0,8.1,41.44ZM11.9,53.33A5.18,5.18,0,0,1,8.1,54.88a5.22,5.22,0,0,1-3.82-1.55,5.43,5.43,0,0,1,0-7.62A5.21,5.21,0,0,1,8.1,44.15a5.33,5.33,0,0,1,5.36,5.37A5.16,5.16,0,0,1,11.9,53.33Z"/><polygon class="cls-2" points="60.74 7.94 60.74 49.41 46.35 49.41 46.35 56.61 69.05 56.61 69.05 7.94 60.74 7.94"/></g></g></svg>